<svg width="800" height="800" viewBox="0 0 800 800" fill="none" xmlns="http://www.w3.org/2000/svg">
  <defs>
    <linearGradient id="bg" x1="120" y1="82" x2="642" y2="698" gradientUnits="userSpaceOnUse">
      <stop stop-color="#FBFDF5"/>
      <stop offset="1" stop-color="#E4F2CC"/>
    </linearGradient>
    <linearGradient id="pack" x1="296" y1="152" x2="538" y2="554" gradientUnits="userSpaceOnUse">
      <stop stop-color="#9BD245"/>
      <stop offset="1" stop-color="#2F6B3B"/>
    </linearGradient>
  </defs>
  <rect width="800" height="800" rx="44" fill="url(#bg)"/>
  <circle cx="138" cy="134" r="82" fill="#E6F2D9"/>
  <circle cx="674" cy="670" r="94" fill="#D4E9A7"/>
  <rect x="257" y="116" width="282" height="520" rx="42" transform="rotate(12 257 116)" fill="url(#pack)"/>
  <rect x="282" y="146" width="232" height="456" rx="32" transform="rotate(12 282 146)" fill="#F5FAEF" fill-opacity="0.2"/>
  <path d="M326 226C359 256 393 277 444 297" stroke="#F7FCEB" stroke-width="10" stroke-linecap="round"/>
  <path d="M344 191C385 226 433 251 481 266" stroke="#D8ECC2" stroke-width="10" stroke-linecap="round"/>
  <rect x="208" y="562" width="174" height="78" rx="39" fill="#FFFFFF" fill-opacity="0.94"/>
  <text x="248" y="610" fill="#2F6B3B" font-family="Poppins, Arial, sans-serif" font-size="30" font-weight="700">Original</text>
  <text x="308" y="318" fill="#F7FCEB" font-family="Poppins, Arial, sans-serif" font-size="26" font-weight="700" transform="rotate(12 308 318)">Energy Bar</text>
  <text x="300" y="360" fill="#F7FCEB" font-family="Poppins, Arial, sans-serif" font-size="23" font-weight="600" transform="rotate(12 300 360)">Daun Jinten</text>
  <text x="326" y="470" fill="#F7FCEB" font-family="Poppins, Arial, sans-serif" font-size="22" font-weight="500" transform="rotate(12 326 470)">Madu dan jinten</text>
  <circle cx="571" cy="204" r="34" fill="#F4D27A"/>
  <path d="M556 204C557 182 571 170 571 170C571 170 585 182 586 204C586 226 571 238 571 238C571 238 555 226 556 204Z" fill="#E7AA2C"/>
  <path d="M155 442C185 390 228 354 290 326" stroke="#98CC43" stroke-width="24" stroke-linecap="round" opacity="0.45"/>
</svg>
